<?xml version="1.0" standalone="no"?>
<!DOCTYPE svg PUBLIC "-//W3C//DTD SVG 20010904//EN"
 "http://www.w3.org/TR/2001/REC-SVG-20010904/DTD/svg10.dtd">
<svg version="1.0" xmlns="http://www.w3.org/2000/svg"
 width="612.000000pt" height="407.000000pt" viewBox="0 0 612.000000 407.000000"
 preserveAspectRatio="xMidYMid meet">

<g transform="translate(0.000000,407.000000) scale(0.100000,-0.100000)"
fill="#000000" stroke="none">
<path d="M2658 3331 l-33 -29 -3 -403 c-2 -269 -6 -407 -14 -416 -8 -10 -94
-13 -410 -13 l-400 0 -34 -34 -34 -34 0 -362 0 -362 34 -34 34 -34 400 0 c316
0 402 -3 410 -13 8 -9 12 -147 14 -416 l3 -403 33 -29 32 -29 370 0 c251 0
377 4 394 11 28 13 36 35 36 104 l0 50 -70 38 c-38 21 -101 51 -140 67 -39 16
-85 39 -102 52 l-32 22 -135 -24 c-75 -13 -149 -23 -165 -22 -41 2 -87 32
-111 72 -31 54 -27 234 9 353 28 95 33 164 14 189 -30 37 -176 58 -410 58
-192 0 -218 7 -267 69 -62 79 -121 225 -121 300 0 57 29 106 72 125 18 8 96
26 173 41 236 45 271 58 336 125 74 77 145 111 291 140 56 11 58 12 63 48 44
268 96 408 168 453 62 37 95 24 136 -58 11 -22 43 -70 70 -105 122 -159 162
-314 138 -525 l-9 -71 99 -104 c54 -57 122 -131 152 -165 29 -35 60 -63 68
-63 8 0 46 28 83 63 149 137 282 157 327 49 20 -48 12 -120 -33 -269 -18 -65
-34 -121 -34 -125 0 -15 239 -9 269 6 49 26 51 40 51 417 0 380 -2 393 -55
417 -19 9 -136 12 -419 12 -313 0 -396 3 -404 13 -8 9 -12 144 -14 416 l-3
403 -33 29 -32 29 -365 0 -365 0 -32 -29z"/>
<path d="M3072 2872 c-27 -48 -68 -205 -83 -319 -16 -119 -23 -128 -106 -143
-37 -6 -103 -23 -146 -37 -69 -23 -84 -33 -125 -80 -29 -33 -66 -63 -99 -78
-50 -24 -238 -72 -375 -95 -37 -7 -72 -18 -79 -26 -19 -23 -5 -96 36 -183 21
-44 50 -92 65 -106 l28 -27 208 -2 c212 -3 299 -14 392 -52 32 -12 44 -24 53
-52 20 -59 15 -167 -15 -276 -17 -64 -26 -124 -26 -173 0 -65 3 -77 25 -99 17
-17 32 -23 47 -19 26 5 188 35 194 35 2 0 -10 21 -26 47 -67 105 -96 258 -68
352 12 39 11 56 -5 135 -22 110 -27 286 -8 338 18 53 53 78 109 78 62 0 115
-33 196 -121 l65 -72 57 12 c32 6 84 11 117 11 33 0 57 4 55 10 -1 5 -61 71
-131 146 -104 110 -128 140 -123 157 3 12 11 60 17 107 21 163 -13 287 -118
428 -36 48 -71 99 -79 115 -8 15 -18 27 -22 27 -5 0 -18 -17 -30 -38z"/>
<path d="M3052 1998 c-28 -35 -21 -226 14 -361 14 -53 13 -63 -2 -103 -12 -32
-15 -63 -12 -113 10 -139 102 -274 227 -332 36 -16 107 -51 158 -76 l91 -46
49 18 c104 39 249 120 294 166 96 95 127 217 98 383 -10 58 -8 68 35 220 50
171 57 230 29 240 -29 11 -116 -41 -201 -119 l-81 -76 -56 16 c-71 21 -230 21
-320 0 -36 -8 -72 -15 -78 -15 -7 0 -38 33 -69 74 -31 40 -78 87 -104 105 -53
35 -58 36 -72 19z"/>
</g>
</svg>
