<svg xmlns="http://www.w3.org/2000/svg" xmlns:xlink="http://www.w3.org/1999/xlink" width="500" zoomAndPan="magnify" viewBox="0 0 375 374.999991" height="500" preserveAspectRatio="xMidYMid meet" version="1.0"><defs><clipPath id="4988815011"><path d="M 83 72 L 321 72 L 321 310 L 83 310 Z M 83 72 " clip-rule="nonzero"/></clipPath><clipPath id="5c79fbe3fb"><path d="M 115.128906 63.058594 L 330.191406 104.402344 L 288.847656 319.464844 L 73.785156 278.121094 Z M 115.128906 63.058594 " clip-rule="nonzero"/></clipPath><clipPath id="8f2543191f"><path d="M 115.128906 63.058594 L 330.191406 104.402344 L 288.847656 319.464844 L 73.785156 278.121094 Z M 115.128906 63.058594 " clip-rule="nonzero"/></clipPath><clipPath id="aed3fd0654"><path d="M 97.285156 86.496094 L 306.535156 86.496094 L 306.535156 295.746094 L 97.285156 295.746094 Z M 97.285156 86.496094 " clip-rule="nonzero"/></clipPath><clipPath id="407c20081c"><path d="M 200.808594 209.675781 L 254 209.675781 L 254 256.027344 L 200.808594 256.027344 Z M 200.808594 209.675781 " clip-rule="nonzero"/></clipPath></defs><g clip-path="url(#4988815011)"><g clip-path="url(#5c79fbe3fb)"><g clip-path="url(#8f2543191f)"><path fill="#a6a6a6" d="M 168.308594 73.28125 L 276.691406 94.117188 C 278.433594 94.453125 280.152344 94.871094 281.851562 95.375 C 283.554688 95.878906 285.226562 96.464844 286.867188 97.132812 C 288.511719 97.800781 290.117188 98.550781 291.6875 99.375 C 293.257812 100.203125 294.78125 101.101562 296.261719 102.078125 C 297.742188 103.054688 299.171875 104.101562 300.550781 105.214844 C 301.929688 106.332031 303.25 107.515625 304.511719 108.761719 C 305.773438 110.007812 306.972656 111.3125 308.105469 112.675781 C 309.238281 114.039062 310.304688 115.453125 311.296875 116.921875 C 312.292969 118.390625 313.214844 119.90625 314.058594 121.464844 C 314.90625 123.023438 315.675781 124.617188 316.363281 126.253906 C 317.050781 127.886719 317.660156 129.550781 318.183594 131.246094 C 318.710938 132.9375 319.152344 134.652344 319.511719 136.390625 C 319.867188 138.128906 320.136719 139.878906 320.324219 141.644531 C 320.507812 143.40625 320.605469 145.175781 320.617188 146.949219 C 320.628906 148.722656 320.554688 150.492188 320.390625 152.257812 C 320.230469 154.023438 319.980469 155.777344 319.644531 157.519531 L 298.808594 265.902344 C 298.476562 267.644531 298.054688 269.363281 297.550781 271.066406 C 297.046875 272.765625 296.460938 274.4375 295.792969 276.082031 C 295.125 277.722656 294.378906 279.328125 293.550781 280.898438 C 292.726562 282.46875 291.824219 283.992188 290.847656 285.472656 C 289.875 286.957031 288.828125 288.386719 287.710938 289.761719 C 286.59375 291.140625 285.414062 292.460938 284.167969 293.722656 C 282.921875 294.984375 281.617188 296.183594 280.253906 297.316406 C 278.890625 298.453125 277.472656 299.515625 276.003906 300.511719 C 274.535156 301.503906 273.023438 302.425781 271.464844 303.273438 C 269.90625 304.117188 268.308594 304.886719 266.675781 305.574219 C 265.039062 306.265625 263.375 306.871094 261.683594 307.398438 C 259.988281 307.921875 258.273438 308.363281 256.535156 308.722656 C 254.800781 309.078125 253.046875 309.351562 251.285156 309.535156 C 249.519531 309.71875 247.75 309.820312 245.976562 309.832031 C 244.203125 309.839844 242.433594 309.765625 240.667969 309.601562 C 238.902344 309.441406 237.148438 309.191406 235.40625 308.859375 L 127.027344 288.023438 C 125.285156 287.6875 123.5625 287.265625 121.863281 286.761719 C 120.160156 286.257812 118.488281 285.671875 116.847656 285.003906 C 115.203125 284.335938 113.597656 283.589844 112.027344 282.765625 C 110.460938 281.9375 108.933594 281.035156 107.453125 280.0625 C 105.972656 279.085938 104.542969 278.039062 103.164062 276.921875 C 101.785156 275.804688 100.464844 274.625 99.203125 273.378906 C 97.941406 272.132812 96.742188 270.828125 95.609375 269.464844 C 94.476562 268.101562 93.410156 266.683594 92.417969 265.214844 C 91.421875 263.75 90.5 262.234375 89.65625 260.675781 C 88.808594 259.117188 88.042969 257.519531 87.351562 255.886719 C 86.664062 254.253906 86.054688 252.589844 85.53125 250.894531 C 85.003906 249.199219 84.5625 247.484375 84.207031 245.746094 C 83.847656 244.011719 83.578125 242.261719 83.390625 240.496094 C 83.207031 238.734375 83.109375 236.964844 83.097656 235.191406 C 83.085938 233.417969 83.160156 231.648438 83.324219 229.878906 C 83.488281 228.113281 83.734375 226.359375 84.070312 224.621094 L 104.90625 116.238281 C 105.242188 114.496094 105.660156 112.773438 106.164062 111.074219 C 106.667969 109.375 107.253906 107.703125 107.921875 106.058594 C 108.589844 104.417969 109.335938 102.808594 110.164062 101.242188 C 110.988281 99.671875 111.890625 98.144531 112.867188 96.664062 C 113.84375 95.183594 114.886719 93.753906 116.003906 92.375 C 117.121094 90.996094 118.300781 89.679688 119.546875 88.414062 C 120.792969 87.152344 122.097656 85.957031 123.460938 84.820312 C 124.828125 83.6875 126.242188 82.625 127.710938 81.628906 C 129.179688 80.632812 130.691406 79.714844 132.25 78.867188 C 133.808594 78.019531 135.40625 77.253906 137.039062 76.5625 C 138.675781 75.875 140.339844 75.269531 142.03125 74.742188 C 143.726562 74.214844 145.441406 73.773438 147.179688 73.417969 C 148.917969 73.058594 150.667969 72.789062 152.429688 72.605469 C 154.195312 72.417969 155.964844 72.320312 157.738281 72.308594 C 159.511719 72.296875 161.28125 72.375 163.046875 72.535156 C 164.8125 72.699219 166.566406 72.945312 168.308594 73.28125 Z M 168.308594 73.28125 " fill-opacity="1" fill-rule="nonzero"/></g></g></g><g clip-path="url(#aed3fd0654)"><path fill="#000000" d="M 149.078125 86.496094 L 254.636719 86.496094 C 256.332031 86.496094 258.023438 86.578125 259.710938 86.746094 C 261.402344 86.914062 263.078125 87.160156 264.742188 87.492188 C 266.402344 87.824219 268.046875 88.234375 269.671875 88.726562 C 271.292969 89.21875 272.890625 89.789062 274.457031 90.4375 C 276.023438 91.089844 277.554688 91.8125 279.050781 92.613281 C 280.546875 93.414062 282 94.28125 283.410156 95.226562 C 284.820312 96.167969 286.183594 97.175781 287.492188 98.253906 C 288.804688 99.328125 290.058594 100.46875 291.257812 101.667969 C 292.457031 102.867188 293.597656 104.121094 294.671875 105.433594 C 295.75 106.742188 296.757812 108.105469 297.699219 109.515625 C 298.644531 110.925781 299.515625 112.378906 300.3125 113.875 C 301.113281 115.371094 301.835938 116.902344 302.488281 118.46875 C 303.136719 120.035156 303.707031 121.632812 304.199219 123.253906 C 304.691406 124.878906 305.101562 126.523438 305.433594 128.1875 C 305.765625 129.847656 306.015625 131.527344 306.179688 133.214844 C 306.347656 134.902344 306.429688 136.59375 306.429688 138.289062 L 306.429688 243.847656 C 306.429688 245.542969 306.347656 247.238281 306.179688 248.925781 C 306.015625 250.613281 305.765625 252.289062 305.433594 253.953125 C 305.101562 255.617188 304.691406 257.257812 304.199219 258.882812 C 303.707031 260.507812 303.136719 262.101562 302.488281 263.667969 C 301.835938 265.234375 301.113281 266.765625 300.3125 268.261719 C 299.515625 269.757812 298.644531 271.210938 297.699219 272.621094 C 296.757812 274.035156 295.75 275.394531 294.671875 276.707031 C 293.597656 278.015625 292.460938 279.273438 291.257812 280.472656 C 290.058594 281.671875 288.804688 282.808594 287.492188 283.886719 C 286.183594 284.960938 284.820312 285.96875 283.410156 286.914062 C 282 287.855469 280.546875 288.726562 279.050781 289.527344 C 277.554688 290.324219 276.023438 291.050781 274.457031 291.699219 C 272.890625 292.347656 271.292969 292.917969 269.671875 293.410156 C 268.046875 293.902344 266.402344 294.316406 264.742188 294.644531 C 263.078125 294.976562 261.402344 295.226562 259.710938 295.390625 C 258.023438 295.558594 256.332031 295.640625 254.636719 295.640625 L 149.078125 295.640625 C 147.382812 295.640625 145.691406 295.558594 144 295.390625 C 142.3125 295.226562 140.636719 294.976562 138.972656 294.644531 C 137.308594 294.316406 135.667969 293.902344 134.042969 293.410156 C 132.421875 292.917969 130.824219 292.347656 129.257812 291.699219 C 127.691406 291.050781 126.160156 290.324219 124.664062 289.527344 C 123.167969 288.726562 121.714844 287.855469 120.304688 286.914062 C 118.894531 285.96875 117.53125 284.960938 116.222656 283.886719 C 114.910156 282.808594 113.65625 281.671875 112.453125 280.472656 C 111.253906 279.273438 110.117188 278.015625 109.042969 276.707031 C 107.964844 275.394531 106.957031 274.035156 106.015625 272.621094 C 105.070312 271.210938 104.199219 269.757812 103.402344 268.261719 C 102.601562 266.765625 101.875 265.234375 101.226562 263.667969 C 100.578125 262.101562 100.007812 260.507812 99.515625 258.882812 C 99.023438 257.257812 98.609375 255.617188 98.28125 253.953125 C 97.949219 252.289062 97.699219 250.613281 97.535156 248.925781 C 97.367188 247.238281 97.285156 245.542969 97.285156 243.847656 L 97.285156 138.289062 C 97.285156 136.59375 97.367188 134.902344 97.535156 133.214844 C 97.699219 131.527344 97.949219 129.847656 98.28125 128.1875 C 98.609375 126.523438 99.023438 124.878906 99.515625 123.253906 C 100.007812 121.632812 100.578125 120.035156 101.226562 118.46875 C 101.875 116.902344 102.601562 115.371094 103.402344 113.875 C 104.199219 112.378906 105.070312 110.925781 106.015625 109.515625 C 106.957031 108.105469 107.964844 106.742188 109.042969 105.433594 C 110.117188 104.121094 111.253906 102.867188 112.453125 101.667969 C 113.65625 100.46875 114.910156 99.328125 116.222656 98.253906 C 117.53125 97.175781 118.894531 96.167969 120.304688 95.226562 C 121.714844 94.28125 123.167969 93.414062 124.664062 92.613281 C 126.160156 91.8125 127.691406 91.089844 129.257812 90.4375 C 130.824219 89.789062 132.421875 89.21875 134.042969 88.726562 C 135.667969 88.234375 137.308594 87.824219 138.972656 87.492188 C 140.636719 87.160156 142.3125 86.914062 144 86.746094 C 145.691406 86.578125 147.382812 86.496094 149.078125 86.496094 Z M 149.078125 86.496094 " fill-opacity="1" fill-rule="nonzero"/></g><g clip-path="url(#407c20081c)"><path fill="#ffffff" d="M 251.152344 251.484375 C 252.308594 250.015625 253.101562 248.398438 253.558594 246.527344 C 253.621094 246.257812 253.679688 245.988281 253.730469 245.710938 C 253.921875 244.464844 253.988281 243.019531 253.789062 241.601562 C 253.648438 239.9375 253.238281 238.300781 252.503906 236.589844 C 251.789062 234.800781 250.808594 233.035156 249.546875 231.378906 C 248.703125 230.164062 247.878906 228.863281 247.234375 227.515625 C 246.527344 226.070312 245.917969 224.5625 245.4375 223.25 L 245.066406 222.222656 C 244.789062 221.453125 244.5 220.730469 244.214844 219.980469 C 244.121094 219.730469 244.027344 219.480469 243.933594 219.222656 C 243.328125 217.714844 242.746094 216.46875 242.027344 215.449219 C 240.804688 213.632812 239.226562 212.246094 237.289062 211.300781 C 236.054688 210.683594 234.683594 210.289062 233.375 209.996094 C 232.148438 209.722656 230.867188 209.695312 229.609375 209.929688 C 229.042969 210.027344 228.484375 210.175781 227.929688 210.375 C 227 210.703125 226.070312 211.167969 225.082031 211.75 C 224.183594 212.324219 223.164062 213.039062 222.109375 213.921875 C 221.054688 214.800781 220.078125 215.699219 219.105469 216.597656 L 218.550781 217.160156 C 217.277344 218.25 215.96875 219.503906 214.53125 220.558594 C 213.292969 221.480469 212.195312 222.179688 211.109375 222.796875 C 209.746094 223.523438 208.347656 224.414062 207.171875 225.4375 C 205.480469 226.863281 204.078125 228.527344 203.003906 230.261719 C 202.304688 231.476562 201.765625 232.730469 201.390625 234.019531 C 201.308594 234.304688 201.234375 234.59375 201.167969 234.886719 C 200.972656 235.765625 200.863281 236.675781 200.871094 237.511719 C 200.847656 240.683594 201.855469 243.484375 203.988281 245.847656 C 205.222656 247.238281 206.707031 248.28125 208.550781 248.863281 C 208.78125 249.003906 208.9375 249.058594 209.183594 249.113281 L 209.347656 249.152344 C 209.429688 249.167969 209.511719 249.1875 209.675781 249.222656 L 210.003906 249.296875 C 210.082031 249.316406 210.164062 249.332031 210.246094 249.351562 L 210.410156 249.386719 C 211.148438 249.550781 211.902344 249.621094 212.496094 249.664062 C 214.203125 249.703125 215.964844 249.503906 217.496094 249.5625 L 217.578125 249.582031 C 219.03125 249.625 220.523438 249.460938 221.96875 249.527344 C 222.5625 249.574219 223.332031 249.570312 224.070312 249.734375 C 225.050781 249.953125 225.953125 250.152344 226.75 250.417969 C 227.859375 250.835938 229.113281 251.375 230.429688 252.011719 C 231.046875 252.320312 231.730469 252.730469 232.347656 253.039062 C 233.191406 253.488281 234.125 253.929688 235.050781 254.394531 C 235.976562 254.859375 236.988281 255.324219 238.132812 255.578125 L 240.097656 256.015625 C 240.261719 256.054688 240.355469 256.007812 240.574219 255.800781 C 241.066406 255.910156 241.652344 255.964844 242.179688 255.910156 C 243.5625 255.878906 244.996094 255.601562 246.425781 254.976562 C 248.316406 254.195312 249.953125 253.019531 251.152344 251.484375 " fill-opacity="1" fill-rule="nonzero"/></g><path fill="#ffffff" d="M 257.707031 229.535156 C 261.0625 230.28125 265.078125 228.886719 267.984375 225.613281 C 272.019531 221.0625 272.386719 214.605469 268.804688 211.1875 C 267.800781 210.230469 266.59375 209.617188 265.289062 209.324219 C 261.933594 208.574219 257.917969 209.96875 255.015625 213.246094 C 250.980469 217.796875 250.609375 224.253906 254.191406 227.667969 C 255.195312 228.625 256.402344 229.242188 257.707031 229.535156 " fill-opacity="1" fill-rule="nonzero"/><path fill="#ffffff" d="M 204.375 217.625 C 205.679688 217.914062 207.035156 217.871094 208.347656 217.433594 C 213.042969 215.863281 215.457031 209.863281 213.742188 204.027344 C 212.503906 199.828125 209.46875 196.859375 206.109375 196.109375 C 204.804688 195.816406 203.449219 195.859375 202.136719 196.300781 C 197.441406 197.867188 195.027344 203.867188 196.742188 209.703125 C 197.980469 213.90625 201.015625 216.875 204.375 217.625 " fill-opacity="1" fill-rule="nonzero"/><path fill="#ffffff" d="M 244.335938 210.367188 C 244.816406 210.59375 245.3125 210.765625 245.816406 210.878906 C 250.285156 211.875 255.4375 208.402344 257.90625 202.429688 C 260.648438 195.785156 259.019531 188.566406 254.265625 186.308594 C 253.785156 186.078125 253.289062 185.90625 252.785156 185.796875 C 248.316406 184.796875 243.164062 188.273438 240.695312 194.242188 C 237.953125 200.886719 239.582031 208.105469 244.335938 210.367188 " fill-opacity="1" fill-rule="nonzero"/><path fill="#ffffff" d="M 227.574219 180.167969 C 227.070312 180.054688 226.550781 179.996094 226.019531 180 C 220.757812 180.023438 216.210938 185.863281 215.867188 193.042969 C 215.558594 199.496094 218.746094 204.832031 223.214844 205.832031 C 223.71875 205.945312 224.238281 206 224.769531 205.996094 C 230.03125 205.972656 234.578125 200.132812 234.921875 192.953125 C 235.230469 186.5 232.042969 181.164062 227.574219 180.167969 " fill-opacity="1" fill-rule="nonzero"/><path fill="#ffffff" d="M 152.210938 187.257812 C 152.457031 188.121094 152.796875 188.96875 153.199219 189.703125 C 154.691406 192.503906 156.910156 194.488281 159.914062 195.550781 C 161.660156 196.1875 163.46875 196.414062 165.367188 196.050781 C 165.632812 196.0625 165.804688 196.054688 166.046875 195.988281 L 166.207031 195.941406 C 166.289062 195.917969 166.371094 195.894531 166.53125 195.851562 L 166.851562 195.757812 C 166.933594 195.734375 167.011719 195.710938 167.09375 195.691406 L 167.257812 195.644531 C 167.980469 195.4375 168.679688 195.136719 169.222656 194.894531 C 170.742188 194.113281 172.195312 193.101562 173.570312 192.425781 L 173.652344 192.402344 C 174.949219 191.75 176.179688 190.875 177.480469 190.242188 C 177.511719 190.230469 177.542969 190.21875 177.574219 190.207031 C 178.101562 189.964844 178.738281 189.613281 179.425781 189.417969 C 180.394531 189.144531 181.277344 188.886719 182.105469 188.738281 C 183.28125 188.578125 184.640625 188.453125 186.101562 188.386719 C 186.371094 188.375 186.664062 188.378906 186.957031 188.378906 C 187.402344 188.382812 187.855469 188.386719 188.277344 188.375 C 188.921875 188.367188 189.605469 188.355469 190.304688 188.339844 C 190.636719 188.328125 190.96875 188.308594 191.300781 188.296875 C 192.335938 188.265625 193.453125 188.210938 194.582031 187.890625 L 196.515625 187.339844 C 196.679688 187.292969 196.734375 187.191406 196.828125 186.902344 C 197.3125 186.765625 197.855469 186.527344 198.292969 186.226562 C 199.492188 185.539062 200.621094 184.609375 201.578125 183.378906 C 202.871094 181.792969 203.746094 179.976562 204.074219 178.054688 C 204.386719 176.210938 204.316406 174.414062 203.824219 172.546875 C 203.753906 172.28125 203.675781 172.015625 203.589844 171.746094 C 203.167969 170.558594 202.535156 169.257812 201.6875 168.105469 C 200.765625 166.710938 199.628906 165.464844 198.171875 164.3125 C 196.6875 163.078125 194.984375 161.992188 193.089844 161.136719 C 191.765625 160.46875 190.421875 159.71875 189.214844 158.839844 C 187.902344 157.90625 186.652344 156.867188 185.605469 155.945312 L 184.789062 155.21875 C 183.972656 154.492188 183.179688 153.847656 182.363281 153.117188 C 181.113281 152.082031 180.007812 151.261719 178.894531 150.707031 C 176.949219 149.691406 174.902344 149.226562 172.75 149.316406 C 171.367188 149.359375 169.976562 149.667969 168.683594 150.03125 C 167.476562 150.375 166.335938 150.960938 165.34375 151.765625 C 164.132812 152.71875 163.175781 153.949219 162.230469 155.523438 C 161.710938 156.453125 161.15625 157.570312 160.644531 158.847656 C 160.136719 160.121094 159.710938 161.378906 159.28125 162.632812 L 159.0625 163.390625 C 158.460938 164.953125 157.90625 166.679688 157.140625 168.289062 C 156.496094 169.691406 155.859375 170.832031 155.203125 171.886719 C 154.347656 173.175781 153.539062 174.625 152.996094 176.085938 C 152.1875 178.144531 151.746094 180.273438 151.625 182.308594 C 151.589844 183.714844 151.714844 185.074219 152 186.386719 C 152.058594 186.675781 152.132812 186.964844 152.210938 187.257812 " fill-opacity="1" fill-rule="nonzero"/><path fill="#ffffff" d="M 200.410156 134.210938 C 199.074219 133.847656 197.71875 133.878906 196.429688 134.246094 C 193.121094 135.183594 190.257812 138.324219 189.261719 142.585938 C 187.878906 148.511719 190.632812 154.363281 195.40625 155.660156 C 196.742188 156.027344 198.097656 155.992188 199.386719 155.628906 C 202.695312 154.6875 205.558594 151.550781 206.554688 147.285156 C 207.933594 141.363281 205.183594 135.511719 200.410156 134.210938 " fill-opacity="1" fill-rule="nonzero"/><path fill="#ffffff" d="M 146.8125 170.546875 C 148.101562 170.179688 149.269531 169.496094 150.214844 168.484375 C 153.597656 164.871094 152.863281 158.445312 148.578125 154.132812 C 145.492188 151.023438 141.40625 149.859375 138.097656 150.800781 C 136.808594 151.164062 135.640625 151.847656 134.691406 152.859375 C 131.3125 156.472656 132.042969 162.898438 136.332031 167.214844 C 139.417969 170.320312 143.503906 171.484375 146.8125 170.546875 " fill-opacity="1" fill-rule="nonzero"/><path fill="#ffffff" d="M 175.777344 119.253906 C 175.246094 119.28125 174.730469 119.367188 174.234375 119.507812 C 169.828125 120.757812 166.949219 126.269531 167.625 132.691406 C 168.375 139.839844 173.246094 145.414062 178.5 145.140625 C 179.03125 145.113281 179.546875 145.023438 180.042969 144.882812 C 184.449219 143.632812 187.328125 138.125 186.65625 131.699219 C 185.902344 124.550781 181.03125 118.976562 175.777344 119.253906 " fill-opacity="1" fill-rule="nonzero"/><path fill="#ffffff" d="M 149.382812 126.558594 C 148.886719 126.699219 148.402344 126.898438 147.933594 127.152344 C 143.320312 129.679688 142.101562 136.980469 145.21875 143.457031 C 148.015625 149.28125 153.359375 152.457031 157.765625 151.207031 C 158.261719 151.066406 158.746094 150.867188 159.214844 150.613281 C 163.832031 148.085938 165.046875 140.785156 161.929688 134.308594 C 159.132812 128.488281 153.785156 125.308594 149.382812 126.558594 " fill-opacity="1" fill-rule="nonzero"/></svg>